# Blender v2.77 (sub 0) OBJ File: ''
# www.blender.org
mtllib sphere10.mtl
o Icosphere.001
v -0.447213 -0.223608 0.000000
v -0.361804 0.223610 0.262863
v -0.361804 0.223610 -0.262863
v -0.397273 0.178870 0.245314
v -0.430349 0.125575 0.221429
v -0.457549 0.064946 0.190868
v -0.475529 -0.000000 0.154506
v -0.482356 -0.064946 0.114521
v -0.478313 -0.125575 0.073809
v -0.465594 -0.178869 0.035045
v -0.465594 -0.178869 -0.035045
v -0.478313 -0.125575 -0.073809
v -0.482356 -0.064946 -0.114521
v -0.475529 0.000000 -0.154506
v -0.457549 0.064946 -0.190868
v -0.430349 0.125575 -0.221429
v -0.397273 0.178870 -0.245314
v -0.385886 0.238493 0.210269
v -0.406365 0.251150 0.147619
v -0.420336 0.259785 0.076347
v -0.425324 0.262868 -0.000000
v -0.420336 0.259785 -0.076347
v -0.406365 0.251150 -0.147619
v -0.385886 0.238493 -0.210269
v -0.422991 0.190449 -0.186568
v -0.455902 0.133032 -0.156384
v -0.443198 0.199547 -0.117288
v -0.480504 0.068205 -0.120266
v -0.473607 0.138198 -0.081229
v -0.454451 0.204614 -0.040089
v -0.493530 0.000000 -0.080177
v -0.493358 0.070029 -0.041161
v -0.479983 0.140059 0.000000
v -0.454451 0.204614 0.040089
v -0.494011 -0.066515 -0.039096
v -0.500000 0.000000 0.000000
v -0.493357 0.070030 0.041161
v -0.473606 0.138198 0.081229
v -0.443198 0.199548 0.117288
v -0.483611 -0.126965 0.000000
v -0.494011 -0.066515 0.039096
v -0.493530 0.000001 0.080178
v -0.480504 0.068206 0.120267
v -0.455902 0.133032 0.156385
v -0.422991 0.190450 0.186568
vn -0.9250 -0.3800 0.0000
vn -0.7711 0.4256 -0.4735
vn -0.8401 0.3276 -0.4323
vn -0.9007 0.2134 -0.3783
vn -0.9462 0.0874 -0.3117
vn -0.9710 -0.0427 -0.2352
vn -0.9736 -0.1683 -0.1540
vn -0.9565 -0.2821 -0.0740
vn -0.8042 0.4078 -0.4324
vn -0.8161 0.4535 -0.3584
vn -0.8748 0.3025 -0.3784
vn -0.8866 0.3482 -0.3043
vn -0.8508 0.4284 -0.3044
vn -0.8507 0.4753 -0.2244
vn -0.9329 0.1804 -0.3116
vn -0.9446 0.2259 -0.2381
vn -0.9186 0.3154 -0.2381
vn -0.9185 0.3626 -0.1577
vn -0.8829 0.4423 -0.1577
vn -0.8697 0.4875 -0.0765
vn -0.9708 0.0472 -0.2351
vn -0.9825 0.0925 -0.1618
vn -0.9692 0.1857 -0.1618
vn -0.9691 0.2329 -0.0814
vn -0.9431 0.3224 -0.0814
vn -0.9299 0.3678 0.0000
vn -0.8944 0.4472 0.0000
vn -0.8697 0.4875 0.0765
vn -0.9842 -0.0879 -0.1539
vn -0.9959 -0.0424 -0.0804
vn -0.9956 0.0472 -0.0803
vn -0.9955 0.0944 0.0000
vn -0.9822 0.1876 0.0000
vn -0.9691 0.2329 0.0814
vn -0.9431 0.3224 0.0814
vn -0.9185 0.3626 0.1577
vn -0.8829 0.4423 0.1577
vn -0.8507 0.4753 0.2244
vn -0.9737 -0.2154 -0.0740
vn -0.9855 -0.1696 0.0000
vn -0.9960 -0.0897 0.0000
vn -0.9959 -0.0424 0.0804
vn -0.9956 0.0472 0.0803
vn -0.9825 0.0925 0.1618
vn -0.9692 0.1857 0.1618
vn -0.9446 0.2259 0.2381
vn -0.9186 0.3154 0.2381
vn -0.8866 0.3482 0.3043
vn -0.8508 0.4284 0.3044
vn -0.8161 0.4535 0.3584
vn -0.9447 -0.3279 0.0000
vn -0.9565 -0.2821 0.0740
vn -0.9737 -0.2154 0.0740
vn -0.9736 -0.1683 0.1540
vn -0.9842 -0.0879 0.1539
vn -0.9710 -0.0427 0.2352
vn -0.9708 0.0472 0.2351
vn -0.9462 0.0874 0.3117
vn -0.9329 0.1804 0.3116
vn -0.9007 0.2134 0.3783
vn -0.8748 0.3025 0.3784
vn -0.8401 0.3276 0.4323
vn -0.8042 0.4078 0.4324
vn -0.7711 0.4256 0.4735
vn 0.9727 0.2321 0.0000
vn 0.9978 0.0665 0.0000
vn 0.9945 -0.1045 -0.0000
vn 0.9822 -0.1876 0.0000
vn 0.9709 -0.2281 0.0726
vn 0.9709 -0.2281 -0.0726
vn 0.8572 -0.3727 0.3555
vn 0.9267 -0.3055 -0.2187
vn 0.8572 -0.3727 -0.3555
vn 0.9267 -0.3055 0.2187
usemtl None
s off
f 1//1 10//1 11//1
f 17//2 24//2 3//2
f 16//3 25//3 17//3
f 15//4 26//4 16//4
f 14//5 28//5 15//5
f 13//6 31//6 14//6
f 12//7 35//7 13//7
f 11//8 40//8 12//8
f 17//9 25//9 24//9
f 25//10 23//10 24//10
f 16//11 26//11 25//11
f 26//12 27//12 25//12
f 25//13 27//13 23//13
f 27//14 22//14 23//14
f 15//15 28//15 26//15
f 28//16 29//16 26//16
f 26//17 29//17 27//17
f 29//18 30//18 27//18
f 27//19 30//19 22//19
f 30//20 21//20 22//20
f 14//21 31//21 28//21
f 31//22 32//22 28//22
f 28//23 32//23 29//23
f 32//24 33//24 29//24
f 29//25 33//25 30//25
f 33//26 34//26 30//26
f 30//27 34//27 21//27
f 34//28 20//28 21//28
f 13//29 35//29 31//29
f 35//30 36//30 31//30
f 31//31 36//31 32//31
f 36//32 37//32 32//32
f 32//33 37//33 33//33
f 37//34 38//34 33//34
f 33//35 38//35 34//35
f 38//36 39//36 34//36
f 34//37 39//37 20//37
f 39//38 19//38 20//38
f 12//39 40//39 35//39
f 40//40 41//40 35//40
f 35//41 41//41 36//41
f 41//42 42//42 36//42
f 36//43 42//43 37//43
f 42//44 43//44 37//44
f 37//45 43//45 38//45
f 43//46 44//46 38//46
f 38//47 44//47 39//47
f 44//48 45//48 39//48
f 39//49 45//49 19//49
f 45//50 18//50 19//50
f 11//51 10//51 40//51
f 10//52 9//52 40//52
f 40//53 9//53 41//53
f 9//54 8//54 41//54
f 41//55 8//55 42//55
f 8//56 7//56 42//56
f 42//57 7//57 43//57
f 7//58 6//58 43//58
f 43//59 6//59 44//59
f 6//60 5//60 44//60
f 44//61 5//61 45//61
f 5//62 4//62 45//62
f 45//63 4//63 18//63
f 4//64 2//64 18//64
f 9//65 10//65 11//65
f 9//65 11//65 12//65
f 8//66 9//66 12//66
f 8//66 12//66 13//66
f 7//67 8//67 13//67
f 7//67 13//67 14//67
f 14//68 21//68 7//68
f 15//69 21//69 14//69
f 21//70 6//70 7//70
f 23//71 16//71 17//71
f 20//72 5//72 6//72
f 20//72 19//72 5//72
f 19//73 4//73 5//73
f 19//73 18//73 4//73
f 15//74 16//74 22//74
f 16//74 23//74 22//74
f 21//70 20//70 6//70
f 21//69 15//69 22//69
f 24//71 23//71 17//71
