# Blender v2.77 (sub 0) OBJ File: ''
# www.blender.org
mtllib sphere6.mtl
o Icosphere.001
v 0.361804 -0.223610 -0.262863
v 0.138194 0.223610 -0.425325
v 0.447213 0.223608 0.000000
v 0.397273 -0.178870 -0.245314
v 0.430349 -0.125575 -0.221429
v 0.457549 -0.064946 -0.190868
v 0.475529 0.000000 -0.154506
v 0.482356 0.064946 -0.114521
v 0.478313 0.125575 -0.073809
v 0.465594 0.178869 -0.035045
v 0.177205 0.178871 -0.431977
v 0.218003 0.125576 -0.432094
v 0.257973 0.064947 -0.423358
v 0.293893 -0.000000 -0.404508
v 0.322920 -0.064947 -0.376171
v 0.343579 -0.125576 -0.340858
v 0.356075 -0.178871 -0.302019
v 0.188592 0.238494 -0.396931
v 0.241986 0.251151 -0.358282
v 0.295183 0.259786 -0.308834
v 0.344095 0.262868 -0.249998
v 0.384936 0.259785 -0.185300
v 0.415525 0.251149 -0.119427
v 0.435782 0.238492 -0.056704
v 0.451870 0.190449 -0.097688
v 0.460754 0.133031 -0.141451
v 0.427496 0.199547 -0.165614
v 0.459428 0.068205 -0.185132
v 0.430902 0.138198 -0.212661
v 0.391223 0.204614 -0.234686
v 0.446403 -0.000000 -0.225221
v 0.423330 0.070030 -0.256686
v 0.388315 0.140059 -0.282126
v 0.344095 0.204615 -0.299552
v 0.422645 -0.066516 -0.258741
v 0.404510 0.000000 -0.293891
v 0.374941 0.070030 -0.323288
v 0.335410 0.138199 -0.344095
v 0.289613 0.199548 -0.355394
v 0.391251 -0.126967 -0.284257
v 0.376684 -0.066516 -0.322001
v 0.352147 0.000000 -0.354955
v 0.318044 0.068205 -0.379732
v 0.276910 0.133033 -0.394491
v 0.232542 0.190450 -0.399566
vn 0.7483 -0.3800 -0.5437
vn 0.9022 0.4256 -0.0702
vn 0.9338 0.3276 -0.1440
vn 0.9511 0.2134 -0.2234
vn 0.9487 0.0874 -0.3040
vn 0.9238 -0.0427 -0.3805
vn 0.8782 -0.1683 -0.4477
vn 0.8173 -0.2821 -0.5024
vn 0.9048 0.4078 -0.1228
vn 0.8708 0.4535 -0.1897
vn 0.9301 0.3025 -0.2081
vn 0.8962 0.3482 -0.2749
vn 0.8672 0.4284 -0.2538
vn 0.8201 0.4753 -0.3185
vn 0.9379 0.1804 -0.2962
vn 0.9041 0.2259 -0.3626
vn 0.8831 0.3154 -0.3473
vn 0.8358 0.3626 -0.4123
vn 0.8070 0.4423 -0.3913
vn 0.7486 0.4875 -0.4493
vn 0.9236 0.0472 -0.3804
vn 0.8899 0.0925 -0.4466
vn 0.8792 0.1857 -0.4388
vn 0.8319 0.2329 -0.5037
vn 0.8108 0.3224 -0.4885
vn 0.7523 0.3678 -0.5466
vn 0.7236 0.4472 -0.5257
vn 0.6587 0.4875 -0.5731
vn 0.8867 -0.0879 -0.4540
vn 0.8529 -0.0424 -0.5203
vn 0.8527 0.0472 -0.5202
vn 0.8054 0.0944 -0.5852
vn 0.7947 0.1876 -0.5773
vn 0.7362 0.2329 -0.6355
vn 0.7151 0.3224 -0.6202
vn 0.6504 0.3626 -0.6675
vn 0.6216 0.4423 -0.6466
vn 0.5564 0.4753 -0.6815
vn 0.8312 -0.2154 -0.5125
vn 0.7973 -0.1696 -0.5793
vn 0.8058 -0.0897 -0.5854
vn 0.7584 -0.0424 -0.6504
vn 0.7583 0.0472 -0.6502
vn 0.6998 0.0925 -0.7084
vn 0.6890 0.1857 -0.7005
vn 0.6243 0.2259 -0.7478
vn 0.6032 0.3154 -0.7326
vn 0.5384 0.3482 -0.7674
vn 0.5094 0.4284 -0.7464
vn 0.4496 0.4535 -0.7696
vn 0.7643 -0.3279 -0.5553
vn 0.7304 -0.2821 -0.6221
vn 0.7443 -0.2154 -0.6322
vn 0.6972 -0.1683 -0.6968
vn 0.7057 -0.0879 -0.7030
vn 0.6473 -0.0427 -0.7610
vn 0.6472 0.0472 -0.7608
vn 0.5823 0.0874 -0.8083
vn 0.5716 0.1804 -0.8005
vn 0.5063 0.2134 -0.8355
vn 0.4853 0.3025 -0.8203
vn 0.4255 0.3276 -0.8436
vn 0.3964 0.4078 -0.8225
vn 0.3455 0.4256 -0.8363
vn -0.7869 0.2321 0.5717
vn -0.8072 0.0665 0.5865
vn -0.8046 -0.1045 0.5846
vn -0.9024 -0.3727 0.2162
vn -0.7947 -0.1876 0.5773
vn -0.8282 -0.2281 0.5119
vn -0.7428 -0.2281 0.6295
vn -0.6212 -0.3055 0.7216
vn -0.4845 -0.3727 0.7914
vn -0.8783 -0.3055 0.3678
usemtl None
s off
f 1//1 17//1 4//1
f 10//2 24//2 3//2
f 9//3 25//3 10//3
f 8//4 26//4 9//4
f 7//5 28//5 8//5
f 6//6 31//6 7//6
f 5//7 35//7 6//7
f 4//8 40//8 5//8
f 10//9 25//9 24//9
f 25//10 23//10 24//10
f 9//11 26//11 25//11
f 26//12 27//12 25//12
f 25//13 27//13 23//13
f 27//14 22//14 23//14
f 8//15 28//15 26//15
f 28//16 29//16 26//16
f 26//17 29//17 27//17
f 29//18 30//18 27//18
f 27//19 30//19 22//19
f 30//20 21//20 22//20
f 7//21 31//21 28//21
f 31//22 32//22 28//22
f 28//23 32//23 29//23
f 32//24 33//24 29//24
f 29//25 33//25 30//25
f 33//26 34//26 30//26
f 30//27 34//27 21//27
f 34//28 20//28 21//28
f 6//29 35//29 31//29
f 35//30 36//30 31//30
f 31//31 36//31 32//31
f 36//32 37//32 32//32
f 32//33 37//33 33//33
f 37//34 38//34 33//34
f 33//35 38//35 34//35
f 38//36 39//36 34//36
f 34//37 39//37 20//37
f 39//38 19//38 20//38
f 5//39 40//39 35//39
f 40//40 41//40 35//40
f 35//41 41//41 36//41
f 41//42 42//42 36//42
f 36//43 42//43 37//43
f 42//44 43//44 37//44
f 37//45 43//45 38//45
f 43//46 44//46 38//46
f 38//47 44//47 39//47
f 44//48 45//48 39//48
f 39//49 45//49 19//49
f 45//50 18//50 19//50
f 4//51 17//51 40//51
f 17//52 16//52 40//52
f 40//53 16//53 41//53
f 16//54 15//54 41//54
f 41//55 15//55 42//55
f 15//56 14//56 42//56
f 42//57 14//57 43//57
f 14//58 13//58 43//58
f 43//59 13//59 44//59
f 13//60 12//60 44//60
f 44//61 12//61 45//61
f 12//62 11//62 45//62
f 45//63 11//63 18//63
f 11//64 2//64 18//64
f 16//65 17//65 4//65
f 16//65 4//65 5//65
f 5//66 6//66 16//66
f 6//67 7//67 15//67
f 23//68 9//68 10//68
f 7//69 21//69 14//69
f 8//70 21//70 7//70
f 21//71 13//71 14//71
f 7//67 14//67 15//67
f 20//72 12//72 13//72
f 20//72 19//72 12//72
f 19//73 11//73 12//73
f 6//66 15//66 16//66
f 19//73 18//73 11//73
f 8//74 9//74 22//74
f 9//74 23//74 22//74
f 21//71 20//71 13//71
f 21//70 8//70 22//70
f 24//68 23//68 10//68
