# Blender v2.77 (sub 0) OBJ File: ''
# www.blender.org
mtllib sphere16.mtl
o Icosphere.001
v 0.000000 -0.500000 0.000000
v 0.361804 -0.223610 0.262863
v 0.361804 -0.223610 -0.262863
v 0.048235 -0.496432 0.035045
v 0.101590 -0.483975 0.073809
v 0.157625 -0.460477 0.114520
v 0.212661 -0.425327 0.154506
v 0.262710 -0.380201 0.190868
v 0.304773 -0.328759 0.221428
v 0.337650 -0.275342 0.245314
v 0.385886 -0.238493 -0.210269
v 0.406365 -0.251150 -0.147619
v 0.420336 -0.259785 -0.076347
v 0.425324 -0.262868 0.000000
v 0.420336 -0.259785 0.076347
v 0.406365 -0.251150 0.147619
v 0.385886 -0.238493 0.210269
v 0.048235 -0.496432 -0.035045
v 0.101590 -0.483975 -0.073809
v 0.157625 -0.460477 -0.114520
v 0.212661 -0.425327 -0.154506
v 0.262710 -0.380201 -0.190868
v 0.304773 -0.328759 -0.221428
v 0.337650 -0.275342 -0.245314
v 0.359508 -0.293167 -0.186568
v 0.376682 -0.307172 -0.117288
v 0.322870 -0.348280 -0.156384
v 0.386246 -0.314971 -0.040089
v 0.335408 -0.361805 -0.081228
v 0.275890 -0.399276 -0.120266
v 0.386246 -0.314971 0.040089
v 0.339924 -0.366676 0.000000
v 0.283270 -0.409956 -0.041161
v 0.220712 -0.441427 -0.080177
v 0.376682 -0.307171 0.117288
v 0.335409 -0.361805 0.081229
v 0.283270 -0.409956 0.041161
v 0.223605 -0.447214 0.000000
v 0.161435 -0.471604 -0.039096
v 0.359508 -0.293166 0.186568
v 0.322870 -0.348280 0.156384
v 0.275890 -0.399275 0.120267
v 0.220712 -0.441427 0.080178
v 0.161435 -0.471604 0.039096
v 0.102716 -0.489336 0.000000
vn 0.7255 -0.4994 0.4735
vn 0.7255 -0.4994 -0.4735
vn 0.7705 -0.5271 -0.3584
vn 0.8056 -0.5483 -0.2244
vn 0.8250 -0.5599 -0.0765
vn 0.8250 -0.5599 0.0765
vn 0.8056 -0.5483 0.2244
vn 0.7705 -0.5271 0.3584
vn 0.7244 -0.5369 -0.4324
vn 0.6687 -0.6049 -0.4323
vn 0.7636 -0.5694 -0.3044
vn 0.7080 -0.6373 -0.3043
vn 0.6618 -0.6472 -0.3784
vn 0.5937 -0.7102 -0.3783
vn 0.7904 -0.5919 -0.1577
vn 0.7351 -0.6594 -0.1577
vn 0.6929 -0.6806 -0.2381
vn 0.6245 -0.7439 -0.2381
vn 0.5786 -0.7537 -0.3116
vn 0.5013 -0.8072 -0.3117
vn 0.8000 -0.6000 0.0000
vn 0.7448 -0.6673 0.0000
vn 0.7101 -0.6993 -0.0814
vn 0.6417 -0.7626 -0.0814
vn 0.5996 -0.7838 -0.1618
vn 0.5222 -0.8374 -0.1618
vn 0.4764 -0.8472 -0.2351
vn 0.3960 -0.8876 -0.2352
vn 0.7904 -0.5919 0.1577
vn 0.7351 -0.6594 0.1577
vn 0.7101 -0.6993 0.0814
vn 0.6417 -0.7626 0.0814
vn 0.6071 -0.7947 -0.0000
vn 0.5297 -0.8482 0.0000
vn 0.4875 -0.8694 -0.0803
vn 0.4074 -0.9097 -0.0804
vn 0.3615 -0.9196 -0.1539
vn 0.2849 -0.9461 -0.1540
vn 0.7636 -0.5694 0.3044
vn 0.7080 -0.6373 0.3043
vn 0.6929 -0.6806 0.2381
vn 0.6245 -0.7439 0.2381
vn 0.5996 -0.7838 0.1618
vn 0.5222 -0.8374 0.1618
vn 0.4875 -0.8694 0.0803
vn 0.4074 -0.9097 0.0804
vn 0.3652 -0.9309 0.0000
vn 0.2891 -0.9573 0.0000
vn 0.2428 -0.9672 -0.0740
vn 0.1755 -0.9817 -0.0740
vn 0.7244 -0.5369 0.4324
vn 0.6687 -0.6049 0.4323
vn 0.6618 -0.6472 0.3784
vn 0.5937 -0.7102 0.3783
vn 0.5786 -0.7537 0.3116
vn 0.5013 -0.8072 0.3117
vn 0.4764 -0.8472 0.2351
vn 0.3960 -0.8876 0.2352
vn 0.3615 -0.9196 0.1539
vn 0.2849 -0.9461 0.1540
vn 0.2428 -0.9672 0.0740
vn 0.1755 -0.9817 0.0740
vn 0.1292 -0.9916 0.0000
vn 0.0738 -0.9973 0.0000
vn -0.2274 0.9738 0.0000
vn -0.3867 0.9222 0.0000
vn -0.5383 0.8428 0.0000
vn -0.6071 0.7947 0.0000
vn -0.6382 0.7664 -0.0726
vn -0.6382 0.7664 0.0726
vn -0.6877 0.6923 0.2187
vn -0.7167 0.6000 -0.3555
vn -0.7167 0.6000 0.3555
vn -0.6877 0.6923 -0.2187
usemtl None
s off
f 2//1 10//1 17//1
f 11//2 24//2 3//2
f 12//3 25//3 11//3
f 13//4 26//4 12//4
f 14//5 28//5 13//5
f 15//6 31//6 14//6
f 16//7 35//7 15//7
f 17//8 40//8 16//8
f 11//9 25//9 24//9
f 25//10 23//10 24//10
f 12//11 26//11 25//11
f 26//12 27//12 25//12
f 25//13 27//13 23//13
f 27//14 22//14 23//14
f 13//15 28//15 26//15
f 28//16 29//16 26//16
f 26//17 29//17 27//17
f 29//18 30//18 27//18
f 27//19 30//19 22//19
f 30//20 21//20 22//20
f 14//21 31//21 28//21
f 31//22 32//22 28//22
f 28//23 32//23 29//23
f 32//24 33//24 29//24
f 29//25 33//25 30//25
f 33//26 34//26 30//26
f 30//27 34//27 21//27
f 34//28 20//28 21//28
f 15//29 35//29 31//29
f 35//30 36//30 31//30
f 31//31 36//31 32//31
f 36//32 37//32 32//32
f 32//33 37//33 33//33
f 37//34 38//34 33//34
f 33//35 38//35 34//35
f 38//36 39//36 34//36
f 34//37 39//37 20//37
f 39//38 19//38 20//38
f 16//39 40//39 35//39
f 40//40 41//40 35//40
f 35//41 41//41 36//41
f 41//42 42//42 36//42
f 36//43 42//43 37//43
f 42//44 43//44 37//44
f 37//45 43//45 38//45
f 43//46 44//46 38//46
f 38//47 44//47 39//47
f 44//48 45//48 39//48
f 39//49 45//49 19//49
f 45//50 18//50 19//50
f 17//51 10//51 40//51
f 10//52 9//52 40//52
f 40//53 9//53 41//53
f 9//54 8//54 41//54
f 41//55 8//55 42//55
f 8//56 7//56 42//56
f 42//57 7//57 43//57
f 7//58 6//58 43//58
f 43//59 6//59 44//59
f 6//60 5//60 44//60
f 44//61 5//61 45//61
f 5//62 4//62 45//62
f 45//63 4//63 18//63
f 4//64 1//64 18//64
f 4//65 5//65 18//65
f 5//66 20//66 19//66
f 6//66 20//66 5//66
f 6//67 21//67 20//67
f 7//67 21//67 6//67
f 7//68 14//68 21//68
f 8//69 14//69 7//69
f 14//70 22//70 21//70
f 14//70 13//70 22//70
f 13//71 23//71 22//71
f 16//72 9//72 10//72
f 12//73 24//73 23//73
f 13//71 12//71 23//71
f 12//73 11//73 24//73
f 5//65 19//65 18//65
f 8//74 9//74 15//74
f 14//69 8//69 15//69
f 15//74 9//74 16//74
f 17//72 16//72 10//72
